<mxfile host="app.diagrams.net" modified="2023-06-02T15:18:08.741Z" agent="Mozilla/5.0 (Windows NT 10.0; Win64; x64) AppleWebKit/537.36 (KHTML, like Gecko) Chrome/113.0.0.0 Safari/537.36" version="21.2.1" etag="8SBDB3twmm6OZMEznv-M" type="github">
  <diagram name="Page-1" id="_zQJRAEXQczDH3wZP9IG">
    <mxGraphModel>
      <root>
        <mxCell id="0" />
        <mxCell id="1" parent="0" />
      </root>
    </mxGraphModel>
  </diagram>
</mxfile>
